<svg viewBox="0 0 24 24" xmlns="http://www.w3.org/2000/svg" xmlns:xlink="http://www.w3.org/1999/xlink" width="24" height="24" fill="none" customFrame="#000000">
	<rect id="icons/check/checked" width="24" height="24" x="0" y="0" />
	<g id="icons/check/checked">
		<g id="icons/check/checked">
			<g id="commons/check/checked">
				<g id="commons/Check/Checked">
					<rect id="Rectangle" width="24" height="24" x="0" y="0" fill="rgb(216,216,216)" fill-opacity="0" />
					<rect id="Rectangle" width="23" height="23" x="0.5" y="0.5" stroke="rgb(151,151,151)" stroke-opacity="0" stroke-width="1" />
					<g id="Group 7">
						<path id="Stroke 3" d="M0 0L4.24264 0" stroke="rgb(254,44,85)" stroke-width="1.5" transform="matrix(0.707107,0.707107,-0.707107,0.707107,8,12)" />
						<path id="Stroke 5" d="M0 0L7.07107 0" stroke="rgb(254,44,85)" stroke-width="1.5" transform="matrix(-0.707107,0.707107,-0.707107,-0.707107,16,10)" />
					</g>
				</g>
			</g>
			<path id="Stroke 1" d="M12 22C6.47667 22 2 17.5233 2 12C2 6.47667 6.47667 2 12 2C17.5233 2 22 6.47667 22 12C22 17.5233 17.5233 22 12 22Z" fill-rule="evenodd" stroke="rgb(254,44,85)" stroke-linecap="round" stroke-linejoin="round" stroke-width="1.5" />
		</g>
	</g>
</svg>
